<svg width="407" height="72" viewBox="0 0 407 72" fill="none" xmlns="http://www.w3.org/2000/svg">
<path fill-rule="evenodd" clip-rule="evenodd" d="M41.2272 14.5632L27.84 57.4992H35.7744L49.1568 14.5632H41.2272ZM22.8288 34.44V26.208L0.0528 34.6512H0V43.1136H0.0528L22.8288 51.5712V43.3248L11.1504 38.8704L22.8288 34.44ZM51.0049 43.3392V51.5712V51.5904L73.7473 43.1664H73.8001V34.704H73.7473L51.0049 26.2416V34.4736L62.6689 38.9088L51.0049 43.3392ZM115.435 41.2224V16.0032H124.335V41.2224C124.335 49.7328 117.413 56.664 108.903 56.664H101.918C93.4081 56.6592 86.4865 49.7328 86.4865 41.2224H95.3857C95.3857 44.832 98.3185 47.7648 101.928 47.7648H108.893C112.498 47.7648 115.435 44.832 115.435 41.2224ZM143.746 56.664C135.23 56.664 128.304 49.7376 128.304 41.2224V31.4448C128.304 22.9296 135.23 16.0032 143.746 16.0032H157.915C166.43 16.0032 173.357 22.9296 173.357 31.4448V41.2224C173.357 49.7376 166.43 56.664 157.915 56.664H143.746ZM143.746 24.9024C140.136 24.9024 137.203 27.8352 137.203 31.4448V41.2224C137.203 44.832 140.136 47.7648 143.746 47.7648H157.915C161.525 47.7648 164.458 44.832 164.458 41.2224V31.4448C164.458 27.8352 161.52 24.9024 157.915 24.9024H143.746ZM192.744 56.664C184.229 56.664 177.303 49.7376 177.303 41.2224V16.0032H186.202V41.2224C186.202 44.832 189.139 47.7648 192.744 47.7648H206.218C209.827 47.7648 212.76 44.832 212.76 41.2224V16.0032H221.659V41.2224C221.659 49.7376 214.733 56.664 206.218 56.664H192.744ZM249.792 39.9648L257.578 56.664V56.6592H267.403L259.752 40.248C259.666 40.0608 259.699 39.9792 259.714 39.9456C259.805 39.7344 260.175 39.528 260.501 39.3504L260.586 39.3027C260.665 39.2584 260.739 39.2167 260.803 39.1776C263.28 37.776 265.219 35.52 266.256 32.8224C267.783 28.8672 267.187 24.4704 264.677 21.0576C262.344 17.8944 258.619 16.0032 254.707 16.0032H234.072C229.426 16.0032 225.648 19.7808 225.648 24.4272V56.6544H234.547V25.4352C234.547 25.1424 234.783 24.9024 235.071 24.8976H254.707C256.075 24.8976 257.285 25.6752 257.866 26.9232C258.379 28.032 258.293 29.2896 257.616 30.312C257.506 30.4704 257.386 30.624 257.251 30.768L257.213 30.8016L257.184 30.8448C256.999 31.03 256.608 31.2777 256.357 31.4371L256.33 31.4544L256.243 31.5072C255.663 31.8768 255.072 32.2272 254.477 32.5728C253.963 32.8704 253.45 33.1632 252.931 33.456C252.49 33.7056 252.048 33.9552 251.607 34.2096C249.586 35.376 248.808 37.8528 249.792 39.9648ZM271.714 56.664L271.704 50.8704V24.4944C271.704 19.8144 275.51 16.008 280.191 16.008H282.327C285.053 16.0992 287.669 17.2752 289.527 19.2336C290.131 19.872 290.655 20.5872 291.077 21.3552C291.187 21.552 291.288 21.7536 291.384 21.96L303.039 46.944C303.264 47.4336 303.739 47.7456 304.277 47.76H305.141C305.477 47.76 305.746 47.4864 305.746 47.1552V42.504L305.736 41.7216V16.008H314.635L314.645 21.7968V48.1728C314.645 52.8528 310.839 56.6592 306.159 56.6592H304.023C301.296 56.568 298.685 55.392 296.823 53.4336C296.213 52.7904 295.69 52.0752 295.272 51.3072C295.167 51.1104 295.061 50.9088 294.97 50.7072L283.315 25.7184C283.09 25.2288 282.615 24.9168 282.077 24.9024H281.213C280.877 24.9024 280.608 25.176 280.608 25.5072V30.1584L280.618 30.9408V56.6592H271.719L271.714 56.664ZM318.615 41.2224C318.615 49.7376 325.541 56.664 334.056 56.664H359.251V47.7648H334.056C330.447 47.7648 327.514 44.832 327.514 41.2224V31.4448C327.514 27.8352 330.447 24.9024 334.056 24.9024H359.251V16.0032H334.056C325.541 16.0032 318.615 22.9296 318.615 31.4448V41.2224ZM334.229 31.8816V40.7808H359.247V31.8816H334.229ZM380.213 56.664V40.1808C377.885 39.528 375.72 38.3424 373.925 36.744C372.274 35.2752 370.954 33.4944 370.003 31.4496L362.803 16.008H372.629L378.077 27.6864C379.301 30.3168 381.768 31.8864 384.667 31.8864C387.567 31.8864 390.029 30.3168 391.258 27.6864L396.706 16.008H406.531L399.331 31.4496C398.376 33.4944 397.056 35.2752 395.41 36.744C393.615 38.3472 391.445 39.528 389.117 40.1808V56.664H380.213Z" fill="url(#paint0_linear_9102_169)"/>
<defs>
<linearGradient id="paint0_linear_9102_169" x1="416.738" y1="49.7697" x2="11.8894" y2="49.7697" gradientUnits="userSpaceOnUse">
<stop stop-color="#B2F7FC"/>
<stop offset="1" stop-color="#FAFABC"/>
</linearGradient>
</defs>
</svg>
